<svg xmlns="http://www.w3.org/2000/svg" xmlns:xlink="http://www.w3.org/1999/xlink" viewBox="0 0 800 800"><defs><style>.cls-1{fill:url(#radial-gradient);}.cls-2{fill:url(#linear-gradient);}.cls-10,.cls-3,.cls-4,.cls-6,.cls-7,.cls-8,.cls-9{opacity:0.76;}.cls-3{fill:url(#linear-gradient-2);}.cls-4{fill:url(#linear-gradient-3);}.cls-5{fill:url(#linear-gradient-4);}.cls-6{fill:url(#linear-gradient-5);}.cls-7{fill:url(#linear-gradient-6);}.cls-8{fill:url(#linear-gradient-7);}.cls-9{fill:url(#linear-gradient-8);}.cls-10{fill:url(#linear-gradient-9);}.cls-11{fill:url(#linear-gradient-10);}.cls-12{fill:url(#linear-gradient-11);}.cls-13{fill:url(#linear-gradient-12);}.cls-14{fill:url(#linear-gradient-13);}</style><radialGradient id="radial-gradient" cx="440.76" cy="430.17" r="240.06" gradientUnits="userSpaceOnUse"><stop offset="0" stop-color="#002196"/><stop offset="0.23" stop-color="#002090"/><stop offset="0.54" stop-color="#001e7f"/><stop offset="0.9" stop-color="#001b63"/><stop offset="1" stop-color="#001a5a"/></radialGradient><linearGradient id="linear-gradient" x1="163.67" y1="402.37" x2="661.03" y2="402.37" gradientUnits="userSpaceOnUse"><stop offset="0.02" stop-color="#009bdb"/><stop offset="0.34" stop-color="#00aae8"/><stop offset="0.49" stop-color="#008ad0"/><stop offset="1" stop-color="#001d7e"/></linearGradient><linearGradient id="linear-gradient-2" x1="344.7" y1="181.05" x2="484.35" y2="227.09" gradientUnits="userSpaceOnUse"><stop offset="0" stop-color="#fff" stop-opacity="0"/><stop offset="0.22" stop-color="#fff" stop-opacity="0.05"/><stop offset="0.62" stop-color="#fff" stop-opacity="0.17"/><stop offset="0.99" stop-color="#fff" stop-opacity="0.3"/></linearGradient><linearGradient id="linear-gradient-3" x1="490.11" y1="540.28" x2="556.1" y2="523.4" xlink:href="#linear-gradient-2"/><linearGradient id="linear-gradient-4" x1="305.78" y1="393.49" x2="660.99" y2="393.49" gradientUnits="userSpaceOnUse"><stop offset="0" stop-color="#001a5a"/><stop offset="1" stop-color="#002196"/></linearGradient><linearGradient id="linear-gradient-5" x1="305.78" y1="393.49" x2="660.99" y2="393.49" xlink:href="#linear-gradient-2"/><linearGradient id="linear-gradient-6" x1="305.78" y1="346.15" x2="518.93" y2="346.15" xlink:href="#linear-gradient-4"/><linearGradient id="linear-gradient-7" x1="310.01" y1="483.23" x2="660.99" y2="483.23" xlink:href="#linear-gradient-4"/><linearGradient id="linear-gradient-8" x1="305.78" y1="307.48" x2="660.99" y2="307.48" xlink:href="#linear-gradient-4"/><linearGradient id="linear-gradient-9" x1="310.01" y1="458.32" x2="518.93" y2="458.32" xlink:href="#linear-gradient-4"/><linearGradient id="linear-gradient-10" x1="333.43" y1="360.19" x2="413.23" y2="261.97" gradientUnits="userSpaceOnUse"><stop offset="0.01" stop-color="#fff" stop-opacity="0.3"/><stop offset="0.38" stop-color="#fff" stop-opacity="0.17"/><stop offset="0.78" stop-color="#fff" stop-opacity="0.05"/><stop offset="1" stop-color="#fff" stop-opacity="0"/></linearGradient><linearGradient id="linear-gradient-11" x1="310.01" y1="501.64" x2="501.47" y2="501.64" xlink:href="#linear-gradient-10"/><linearGradient id="linear-gradient-12" x1="305.78" y1="347.15" x2="399.56" y2="347.15" xlink:href="#linear-gradient-2"/><linearGradient id="linear-gradient-13" x1="310.01" y1="470.55" x2="399.56" y2="470.55" xlink:href="#linear-gradient-2"/></defs><g id="Layer_2" data-name="Layer 2"><g id="Layer_1-2" data-name="Layer 1"><rect class="cls-1" width="800" height="800" rx="14.54"/><path class="cls-2" d="M661,402.37c0,137.34-111.33,248.68-248.68,248.68S163.67,539.71,163.67,402.37,275,153.69,412.35,153.69c118,0,216.8,82.18,242.3,192.44a177.65,177.65,0,0,0-348.87,47.36c0,1.67,0,3.35.07,5-.05,1.29-.07,2.58-.07,3.87A106.17,106.17,0,0,0,310,432.16a177.65,177.65,0,0,0,351-34.54C661,399.2,661,400.79,661,402.37Z"/><path class="cls-3" d="M654.65,346.13A177.87,177.87,0,0,0,458.73,217.56c-41.17-39.27-107.33-42.9-154-39.44a247.68,247.68,0,0,1,107.62-24.43C530.35,153.69,629.15,235.87,654.65,346.13Z"/><path class="cls-4" d="M661,402.37c0,137.34-111.33,248.68-248.68,248.68-7,0-14-.29-20.84-.87,39.69-7.38,88.43-28.34,126.09-82.35A177.71,177.71,0,0,0,661,397.62C661,399.2,661,400.79,661,402.37Z"/><path class="cls-5" d="M661,397.62a177.65,177.65,0,0,1-351,34.54,106.63,106.63,0,1,0-4.16-33.66c-.05-1.66-.07-3.34-.07-5a177.65,177.65,0,0,1,348.87-47.36.19.19,0,0,1,0,.08A249.28,249.28,0,0,1,661,397.62Z"/><path class="cls-6" d="M661,397.62a177.65,177.65,0,0,1-351,34.54,106.63,106.63,0,1,0-4.16-33.66c-.05-1.66-.07-3.34-.07-5a177.65,177.65,0,0,1,348.87-47.36.19.19,0,0,1,0,.08A249.28,249.28,0,0,1,661,397.62Z"/><path class="cls-7" d="M412.35,295.79A106.59,106.59,0,0,1,518.91,400.42c0-.65,0-1.3,0-2a106.57,106.57,0,0,0-213.08-3.86c0-.83,0-1.65-.05-2.48,0,.45,0,.91,0,1.37,0,1.67,0,3.35.07,5A106.58,106.58,0,0,1,412.35,295.79Z"/><path class="cls-8" d="M483.41,567.21A177.69,177.69,0,0,1,314.47,444.58,105.32,105.32,0,0,1,310,432.16a177.65,177.65,0,0,0,351-34.54l-.06-2.28A177.62,177.62,0,0,1,483.41,567.21Z"/><path class="cls-9" d="M483.41,219.41A177.7,177.7,0,0,1,654.65,349.68a.24.24,0,0,1,0,.08,248.85,248.85,0,0,1,6.26,49.34l.06-1.48a249.28,249.28,0,0,0-6.32-51.41.19.19,0,0,0,0-.08,177.65,177.65,0,0,0-348.87,47.36c0,.77,0,1.55,0,2.32C306.46,298.28,385.72,219.41,483.41,219.41Z"/><path class="cls-10" d="M412.35,512.5A106.58,106.58,0,0,0,518.93,405.92c0-.59,0-1.18,0-1.77a106.58,106.58,0,0,1-208.9,28q1.67,7.51,3.95,14.76A106.59,106.59,0,0,0,412.35,512.5Z"/><path class="cls-11" d="M305.85,398.5c-.05-1.66-.07-3.34-.07-5A177.51,177.51,0,0,1,483.41,215.86a179.68,179.68,0,0,1,18.36.94l-68.89,81a106.82,106.82,0,0,0-20.53-2c-1.49,0-3,0-4.45.1A106.57,106.57,0,0,0,305.85,398.5Z"/><path class="cls-12" d="M438.17,505.8l63.3,64.41a179.59,179.59,0,0,1-18.06.91h-.62A177.65,177.65,0,0,1,310,432.16,106.59,106.59,0,0,0,412.35,509c3.2,0,6.36-.15,9.48-.42A105.94,105.94,0,0,0,438.17,505.8Z"/><path class="cls-13" d="M399.56,296.56a107.88,107.88,0,0,0-12.78-.77,106.07,106.07,0,0,0-63.69,21.13,177,177,0,0,0-17.31,76.57c0,1.67,0,3.35.07,5A106.59,106.59,0,0,1,399.56,296.56Z"/><path class="cls-14" d="M399.56,508.18a106.65,106.65,0,0,1-89.55-76,176.63,176.63,0,0,0,29.82,65.91A106.16,106.16,0,0,0,386.78,509,108,108,0,0,0,399.56,508.18Z"/></g></g></svg>